<svg width="24" height="12" viewBox="0 0 24 12" fill="none" xmlns="http://www.w3.org/2000/svg">
<path fill-rule="evenodd" clip-rule="evenodd" d="M18.586 4.081C17.147 4.081 17.236 6.883 16.557 8.152C16.443 8.363 16.132 8.336 16.057 8.108C15.286 5.744 15.638 0 13.547 0C11.358 0 11.899 7.433 11.047 10.462C10.984 10.692 10.666 10.712 10.573 10.49C9.673 8.329 9.774 3.615 8.071 3.615C6.309 3.615 6.459 7.564 5.769 9.155C5.678 9.368 5.377 9.375 5.276 9.165C4.773 8.116 4.612 6 2.712 6H0.499C0.224 6 0 6.224 0 6.499C0 6.774 0.224 7 0.499 7H2.712C4.284 7 3.75 10.484 5.566 10.484C7.25 10.484 7.068 6.694 7.789 5.014C7.877 4.806 8.171 4.812 8.255 5.02C9.06 7.067 9.045 12 10.896 12C12.973 12 12.233 4.144 13.339 1.379C13.422 1.168 13.723 1.157 13.818 1.367C14.847 3.617 14.305 9.493 16.162 9.493C17.801 9.493 17.899 6.787 18.392 5.455C18.473 5.243 18.765 5.228 18.866 5.428C19.382 6.429 19.712 8 21.266 8H23.501C23.776 8 24 7.776 24 7.501C24 7.225 23.776 7.001 23.501 7.001H21.266C19.943 7.001 20.149 4.081 18.586 4.081Z" fill="white"/>
</svg>
