<svg width="17" height="25" viewBox="0 0 17 25" fill="none" xmlns="http://www.w3.org/2000/svg">
<mask id="mask0_10268_327" style="mask-type:alpha" maskUnits="userSpaceOnUse" x="0" y="0" width="100" height="25">
<path fill-rule="evenodd" clip-rule="evenodd" d="M0 0.536194H99.7182V24.5362H0V0.536194Z" fill="white"/>
</mask>
<g mask="url(#mask0_10268_327)">
<path fill-rule="evenodd" clip-rule="evenodd" d="M6.00065 6.44907C6.00065 7.3765 5.24888 8.12827 4.32145 8.12827C3.39435 8.12827 2.64258 7.3765 2.64258 6.44907C2.64258 5.52164 3.39435 4.76987 4.32145 4.76987C5.24888 4.76987 6.00065 5.52164 6.00065 6.44907Z" fill="white"/>
<path fill-rule="evenodd" clip-rule="evenodd" d="M6.394 17.845C6.394 18.9894 5.46624 19.9168 4.32216 19.9168C3.17776 19.9168 2.25 18.9894 2.25 17.845C2.25 16.7006 3.17776 15.7731 4.32216 15.7731C5.46624 15.7731 6.394 16.7006 6.394 17.845Z" fill="white"/>
<path fill-rule="evenodd" clip-rule="evenodd" d="M10.0893 7.17692V8.79171H9.79915C9.45759 5.16819 6.31714 1.28735 0.0216064 1.28735L0.351135 0.781189C5.0797 0.781189 10.0893 1.67479 10.0893 7.17692Z" fill="white"/>
<path fill-rule="evenodd" clip-rule="evenodd" d="M14.9863 17.8461C14.9863 25.5752 3.87627 24.761 0 24.1963L0.0204951 23.9061C9.46461 23.8693 12.8825 21.1785 12.8825 17.8461C12.8825 14.5137 9.46461 11.8228 0.0204951 11.7861L0 11.4959C3.87628 10.9302 14.9863 10.1166 14.9863 17.8461" fill="white"/>
</g>
</svg>
