<svg width="215" height="52" viewBox="0 0 215 52" fill="none" xmlns="http://www.w3.org/2000/svg">
<mask id="mask0_0_1293" style="mask-type:alpha" maskUnits="userSpaceOnUse" x="0" y="0" width="215" height="52">
<path fill-rule="evenodd" clip-rule="evenodd" d="M0 0H214.129V51.5362H0V0Z" fill="white"/>
</mask>
<g mask="url(#mask0_0_1293)">
<path fill-rule="evenodd" clip-rule="evenodd" d="M49.7168 12.6966C49.7168 14.6882 48.1025 16.3025 46.111 16.3025C44.1202 16.3025 42.5059 14.6882 42.5059 12.6966C42.5059 10.7051 44.1202 9.09082 46.111 9.09082C48.1025 9.09082 49.7168 10.7051 49.7168 12.6966Z" fill="white"/>
<path fill-rule="evenodd" clip-rule="evenodd" d="M50.5607 37.1679C50.5607 39.6254 48.5685 41.6169 46.1118 41.6169C43.6543 41.6169 41.6621 39.6254 41.6621 37.1679C41.6621 34.7105 43.6543 32.719 46.1118 32.719C48.5685 32.719 50.5607 34.7105 50.5607 37.1679Z" fill="white"/>
<path fill-rule="evenodd" clip-rule="evenodd" d="M58.4938 14.2597V17.7272H57.8708C57.1373 9.94627 50.3937 1.61279 36.875 1.61279L37.5826 0.525879C47.7365 0.525879 58.4938 2.44474 58.4938 14.2597" fill="white"/>
<path fill-rule="evenodd" clip-rule="evenodd" d="M69.0117 37.1706C69.0117 53.7677 45.1548 52.0193 36.8311 50.8066L36.8751 50.1836C57.1548 50.1046 64.4943 44.3264 64.4943 37.1706C64.4943 30.0149 57.1548 24.2366 36.8751 24.1577L36.8311 23.5346C45.1548 22.3198 69.0117 20.5728 69.0117 37.1706" fill="white"/>
<path fill-rule="evenodd" clip-rule="evenodd" d="M12.8857 12.6966C12.8857 14.6882 11.2714 16.3025 9.27992 16.3025C7.28911 16.3025 5.6748 14.6882 5.6748 12.6966C5.6748 10.7051 7.28911 9.09082 9.27992 9.09082C11.2714 9.09082 12.8857 10.7051 12.8857 12.6966Z" fill="white"/>
<path fill-rule="evenodd" clip-rule="evenodd" d="M13.7296 37.1679C13.7296 39.6254 11.7374 41.6169 9.28069 41.6169C6.82326 41.6169 4.83105 39.6254 4.83105 37.1679C4.83105 34.7105 6.82326 32.719 9.28069 32.719C11.7374 32.719 13.7296 34.7105 13.7296 37.1679Z" fill="white"/>
<path fill-rule="evenodd" clip-rule="evenodd" d="M21.6638 14.2597V17.7272H21.0407C20.3072 9.94627 13.5636 1.61279 0.0449219 1.61279L0.752532 0.525879C10.9064 0.525879 21.6638 2.44474 21.6638 14.2597Z" fill="white"/>
<path fill-rule="evenodd" clip-rule="evenodd" d="M32.1806 37.1706C32.1806 53.7677 8.32369 52.0193 0 50.8066L0.04401 50.1836C20.3238 50.1046 27.6632 44.3264 27.6632 37.1706C27.6632 30.0149 20.3238 24.2366 0.04401 24.1577L0 23.5346C8.3237 22.3198 32.1806 20.5728 32.1806 37.1706" fill="white"/>
<path fill-rule="evenodd" clip-rule="evenodd" d="M113.508 50.8027H74.4541L74.2383 50.1775C75.7136 48.5205 92.3372 25.6646 97.8584 0.525879L98.4794 0.879339C95.8313 19.841 88.8578 37.6088 82.8358 46.4857L113.803 50.262L113.508 50.8027Z" fill="white"/>
<path fill-rule="evenodd" clip-rule="evenodd" d="M68.1143 9.49675L73.0347 9.19778C75.1939 9.07763 75.9141 8.29737 76.0943 6.13682L76.5148 0.976074H77.1141L77.5346 6.13682C77.7149 8.29738 78.4343 9.07764 80.5949 9.19778L85.5146 9.49675V10.0374L80.5949 10.3364C78.4343 10.4565 77.7149 11.2375 77.5346 13.3973L77.1141 32.2682H76.5148L76.0943 13.3973C75.9141 11.2375 75.1939 10.4565 73.0347 10.3364L68.1143 10.0374V9.49675Z" fill="white"/>
<path fill-rule="evenodd" clip-rule="evenodd" d="M144.219 50.8027C131.784 50.8027 110.042 38.4037 110.042 0.879346L110.663 0.525886C110.663 3.26832 112.374 37.9818 139.662 44.3392L143.819 0.520996H144.219V50.8027Z" fill="white"/>
<path fill-rule="evenodd" clip-rule="evenodd" d="M214.13 24.9872C208.173 37.5174 188.297 51.0654 187.711 51.3288C187.628 51.2121 187.538 51.0913 187.456 50.9711C189.341 49.2241 205.715 35.5636 205.715 30.2492C205.715 28.3946 203.968 26.8851 201.815 26.8851H186.529L186.235 26.3416C192.192 13.8155 212.068 0.26265 212.654 0C212.741 0.12085 212.827 0.24169 212.909 0.36184C211.024 2.10887 194.651 15.7652 194.651 21.0838C194.651 22.9384 196.402 24.4479 198.55 24.4479H213.836L214.13 24.9872Z" fill="white"/>
<path fill-rule="evenodd" clip-rule="evenodd" d="M153.189 24.9891C159.145 37.5194 179.021 51.0674 179.608 51.3307C179.691 51.2141 179.78 51.0932 179.863 50.9731C177.978 49.226 161.605 35.5656 161.605 30.2511C161.605 28.3965 163.351 26.887 165.504 26.887H180.791L181.083 26.3436C175.127 13.8175 155.252 0.264603 154.665 0.00195312C154.577 0.122803 154.492 0.243643 154.41 0.364493C156.295 2.11082 172.668 15.7671 172.668 21.0857C172.668 22.9403 170.917 24.4499 168.769 24.4499H153.483L153.189 24.9891Z" fill="white"/>
</g>
</svg>
