<svg width="23" height="23" viewBox="0 0 23 23" fill="none" xmlns="http://www.w3.org/2000/svg">
<path fill-rule="evenodd" clip-rule="evenodd" d="M11.0011 22.0028C8.06284 22.0028 5.3004 20.8583 3.22238 18.7804C1.14437 16.7025 0 13.94 0 11.0018C0 8.06325 1.14437 5.30052 3.22238 3.22245C5.30028 1.14443 8.06284 0 11.0011 0C13.9399 0 16.7027 1.14442 18.7804 3.22245C20.8578 5.30035 22.002 8.06307 22.002 11.0018C22.002 13.94 20.8577 16.7025 18.7799 18.7804C16.702 20.8583 13.9393 22.0028 11.0011 22.0028ZM4.71819 12.7525C4.66425 12.7525 4.62038 12.7968 4.62038 12.8511V12.9161C4.62038 14.9517 6.27092 16.6078 8.29958 16.6078H14.0334C15.1079 16.6078 15.7231 15.6205 16.318 14.6657C16.4821 14.4025 16.6516 14.1304 16.8271 13.8861C17.141 13.4489 17.8981 13.1006 18.1229 13.0041C18.1592 12.9885 18.1836 12.9514 18.1836 12.9119V12.2032C18.1836 12.1486 18.1394 12.1042 18.085 12.1042C18.0759 12.1042 18.0668 12.1055 18.0578 12.1082L14.7115 13.0755C14.693 13.0804 14.677 13.0903 14.6652 13.1041C14.4268 13.3671 14.1762 13.6134 13.9206 13.8361L13.9153 13.8408C13.7051 14.0191 13.4504 14.1134 13.1786 14.1134H11.9668V12.8777H12.9299C12.9546 12.8777 12.9784 12.869 12.9969 12.8532L13.1213 12.7385C13.1684 12.6959 13.2325 12.6365 13.3128 12.5555C13.3575 12.5115 13.4081 12.4616 13.4568 12.408C13.5018 12.3637 13.5499 12.311 13.6001 12.2514C13.6771 12.1695 13.7498 12.0841 13.8238 11.9964C13.8792 11.9366 13.9308 11.8667 13.9763 11.8049C14.034 11.7368 14.0905 11.6608 14.1333 11.6021C14.1516 11.5755 14.1708 11.5486 14.1905 11.521L14.1948 11.515C14.2131 11.4895 14.2317 11.4633 14.2502 11.4365C14.2892 11.3786 14.3247 11.3213 14.3529 11.2709C14.4408 11.1348 14.5226 10.9797 14.5961 10.8095C14.6265 10.7438 14.6511 10.6742 14.675 10.6068L14.6856 10.5768C14.716 10.4867 14.7365 10.4138 14.7518 10.3406C14.7913 10.1571 14.802 9.96738 14.7834 9.77657C14.7791 9.71737 14.7743 9.65985 14.761 9.60602V9.59696C14.7568 9.55756 14.7476 9.51459 14.7352 9.47604C14.6963 9.30068 14.6342 9.11709 14.5506 8.93015C14.5261 8.86972 14.496 8.80342 14.4611 8.73302C14.3962 8.61205 14.3178 8.46998 14.2278 8.33401C14.2119 8.30928 14.1948 8.28422 14.1775 8.25903C14.1611 8.23514 14.1445 8.21108 14.1292 8.18719C14.0739 8.10175 14.0097 8.01664 13.9528 7.94155L13.9147 7.89086C13.8812 7.84705 13.844 7.80268 13.8081 7.75964L13.8025 7.75299C13.7813 7.72758 13.7599 7.70207 13.7392 7.67627C13.6724 7.5952 13.6166 7.5299 13.5638 7.47081C13.338 7.21488 13.0979 6.98563 12.9368 6.83546C12.8993 6.79792 12.86 6.76172 12.8201 6.72792C12.6644 6.58574 12.5273 6.46672 12.4126 6.37418C12.3797 6.34912 12.35 6.32422 12.32 6.29875L12.3134 6.29327C12.2947 6.27754 12.2769 6.26266 12.2595 6.24906L12.1937 6.19903L12.1746 6.18454L12.1254 6.14705C12.1162 6.13989 12.1053 6.13575 12.0961 6.1324L11.9668 6.09603V5.02944C11.9668 4.86286 11.9022 4.70496 11.7851 4.585C11.6687 4.46643 11.5123 4.40113 11.3454 4.40113C11.0024 4.40113 10.7234 4.68303 10.7234 5.02944V5.74799L10.6591 5.72975L10.4844 5.68017L10.325 5.63614L10.32 5.63547L9.10746 5.30764C9.10174 5.30596 9.09581 5.30512 9.09011 5.30512C9.06862 5.30512 9.04814 5.31715 9.03673 5.33646C9.02542 5.35593 9.02509 5.37943 9.03617 5.39924L9.22977 5.75639C9.24073 5.78325 9.25427 5.80999 9.26725 5.83601C9.27699 5.85554 9.28684 5.87512 9.29612 5.89543C9.3326 5.9684 9.36327 6.03264 9.38979 6.09183C9.4171 6.15053 9.44429 6.20783 9.47573 6.27144L9.51904 6.36779C9.56918 6.47897 9.62099 6.5939 9.6728 6.71879L9.68399 6.74559C9.72428 6.8425 9.76602 6.94272 9.80295 7.04584C9.91608 7.33965 10.0171 7.63928 10.1034 7.93628C10.1248 8.00331 10.1416 8.0666 10.1595 8.13363C10.168 8.16619 10.1761 8.19635 10.1844 8.22708L10.1971 8.28084C10.2385 8.44529 10.2673 8.58193 10.2873 8.71062C10.3061 8.81263 10.3224 8.90462 10.3313 8.99801C10.3448 9.10146 10.3585 9.21158 10.3635 9.31946C10.3722 9.41504 10.3767 9.51872 10.3767 9.61927C10.3767 9.886 10.352 10.122 10.3012 10.3406L10.2906 10.3796C10.2758 10.4349 10.2605 10.4915 10.2425 10.546C10.2253 10.6059 10.2037 10.6651 10.1807 10.7278L10.1573 10.7928L10.1476 10.8186C10.1327 10.8585 10.1174 10.8994 10.0985 10.9396C9.99867 11.1799 9.86976 11.4375 9.70436 11.7272C9.44171 12.1914 9.21846 12.5173 9.13464 12.6359C9.1249 12.6506 9.1155 12.6646 9.10621 12.6779C9.09625 12.6924 9.08685 12.7062 9.07812 12.7197C9.05652 12.7504 9.05405 12.7903 9.07141 12.8239C9.08898 12.8575 9.12166 12.8777 9.15914 12.8777H10.7234V14.1134H9.14102C8.71666 14.1134 8.32096 13.8675 8.13317 13.4871C8.03536 13.2949 7.99597 13.0827 8.01925 12.8734C8.02215 12.8416 8.0113 12.8097 7.9897 12.7862C7.97001 12.7645 7.94348 12.7525 7.91517 12.7525L4.71819 12.7525ZM8.41968 6.77404C8.386 6.77404 8.35511 6.791 8.33698 6.81937L5.47493 11.2967L5.42748 11.3714C5.40812 11.4017 5.40689 11.4387 5.42413 11.4705C5.44181 11.5025 5.47426 11.5217 5.5113 11.5217H8.45437C8.48749 11.5217 8.51815 11.5055 8.53629 11.4784C8.57377 11.421 8.6097 11.3599 8.64316 11.2967C8.93143 10.8126 9.13152 10.3755 9.2065 10.0659C9.43703 9.07453 8.79535 7.47403 8.50899 6.83196C8.49321 6.7962 8.45896 6.77404 8.41969 6.77404H8.41968Z" fill="white"/>
</svg>
