<svg aria-hidden="true" style="" version="1.1" xmlns="http://www.w3.org/2000/svg" xmlns:xlink="http://www.w3.org/1999/xlink">
<defs>

<symbol id="instagram"  viewBox="0 0 24 24" xmlns="http://www.w3.org/2000/svg">
<title>instagram</title>
<path fill-rule="evenodd" clip-rule="evenodd" d="M12.0027 5.84585C8.59743 5.84585 5.85075 8.59315 5.85075 11.9992C5.85075 15.4052 8.59743 18.1525 12.0027 18.1525C15.4079 18.1525 18.1546 15.4052 18.1546 11.9992C18.1546 8.59315 15.4079 5.84585 12.0027 5.84585ZM12.0027 15.9996C9.80211 15.9996 8.00312 14.2056 8.00312 11.9992C8.00312 9.79275 9.79676 7.9987 12.0027 7.9987C14.2086 7.9987 16.0022 9.79274 16.0022 11.9992C16.0022 14.2056 14.2032 15.9996 12.0027 15.9996ZM19.8412 5.59415C19.8412 6.3921 19.1987 7.02939 18.4062 7.02939C17.6085 7.02939 16.9713 6.38675 16.9713 5.59415C16.9713 4.80156 17.6138 4.15892 18.4062 4.15892C19.1987 4.15892 19.8412 4.80156 19.8412 5.59415ZM23.9157 7.05081C23.8246 5.12824 23.3856 3.42524 21.9775 2.02213C20.5747 0.61903 18.872 0.179891 16.9499 0.0834905C14.9689 -0.0289695 9.03112 -0.0289695 7.05008 0.0834905C5.13329 0.174531 3.43067 0.613671 2.02253 2.01677C0.61439 3.41987 0.1807 5.12287 0.08433 7.04545C-0.02811 9.02693 -0.02811 14.966 0.08433 16.9475C0.17535 18.8701 0.61439 20.5731 2.02253 21.9762C3.43067 23.3793 5.12794 23.8184 7.05008 23.9148C9.03112 24.0273 14.9689 24.0273 16.9499 23.9148C18.872 23.8238 20.5747 23.3846 21.9775 21.9762C23.3803 20.5731 23.8193 18.8701 23.9157 16.9475C24.0281 14.966 24.0281 9.03228 23.9157 7.0508L23.9157 7.05081ZM21.3564 19.0736C20.9388 20.1232 20.1303 20.9319 19.0755 21.3549C17.496 21.9815 13.7481 21.8369 12.0027 21.8369C10.2572 21.8369 6.50395 21.9762 4.92983 21.3549C3.88042 20.9372 3.07194 20.1286 2.64896 19.0736C2.02252 17.4937 2.16709 13.745 2.16709 11.9992C2.16709 10.2533 2.02788 6.4992 2.64896 4.92473C3.06658 3.87508 3.87506 3.06642 4.92983 2.64335C6.50931 2.01677 10.2572 2.16137 12.0027 2.16137C13.7481 2.16137 17.5014 2.02213 19.0755 2.64335C20.1249 3.06107 20.9334 3.86973 21.3564 4.92473C21.9828 6.50456 21.8383 10.2533 21.8383 11.9992C21.8383 13.745 21.9828 17.4991 21.3564 19.0736Z" fill="white"/>
</symbol>

<symbol id="discord"  width="24" height="18" viewBox="0 0 24 18" fill="none" xmlns="http://www.w3.org/2000/svg">
<title>discord</title>
<path fill-rule="evenodd" clip-rule="evenodd" d="M20.3303 1.50665C18.7767 0.802396 17.1156 0.290586 15.3789 -0.000854492C15.1656 0.372755 14.9164 0.875265 14.7446 1.27501C12.8985 1.00602 11.0693 1.00602 9.25716 1.27501C9.08539 0.875265 8.83056 0.372755 8.61536 -0.000854492C6.87681 0.290576 5.21375 0.804276 3.66019 1.51038C0.526644 6.09818 -0.322806 10.572 0.101914 14.9823C2.18025 16.4861 4.1944 17.3996 6.17457 17.9973C6.66348 17.3454 7.09953 16.6523 7.47517 15.922C6.75975 15.6586 6.07452 15.3335 5.42707 14.9562C5.59884 14.8329 5.76685 14.704 5.92918 14.5714C9.8782 16.3609 14.1689 16.3609 18.0707 14.5714C18.235 14.704 18.403 14.8329 18.5728 14.9562C17.9235 15.3354 17.2364 15.6604 16.521 15.9238C16.8966 16.6523 17.3308 17.3472 17.8216 17.9992C19.8036 17.4014 21.8197 16.488 23.898 14.9823C24.3964 9.86966 23.0467 5.43691 20.3303 1.50665ZM8.01318 12.27C6.82773 12.27 5.85556 11.1978 5.85556 9.89207C5.85556 8.58634 6.80697 7.51225 8.01318 7.51225C9.21943 7.51225 10.1916 8.58446 10.1708 9.89207C10.1727 11.1978 9.21942 12.27 8.01318 12.27ZM15.9867 12.27C14.8013 12.27 13.8291 11.1978 13.8291 9.89207C13.8291 8.58634 14.7805 7.51225 15.9867 7.51225C17.193 7.51225 18.1651 8.58446 18.1444 9.89207C18.1444 11.1978 17.193 12.27 15.9867 12.27Z" fill="white"/>
</symbol>

<symbol id="exclusion"  width="24" height="24" viewBox="0 0 24 24" fill="none" xmlns="http://www.w3.org/2000/svg">
<title>exclusion</title>
<path fill-rule="evenodd" clip-rule="evenodd" d="M12.0001 24C8.79504 24 5.78174 22.7517 3.51501 20.4851C1.24829 18.2184 0 15.205 0 12C0 8.79463 1.24829 5.78102 3.51501 3.51423C5.78161 1.24751 8.79504 -0.000854492 12.0001 -0.000854492C15.2058 -0.000854492 18.2195 1.2475 20.4858 3.51423C22.7519 5.78083 24 8.79444 24 12C24 15.2051 22.7518 18.2184 20.4853 20.4851C18.2188 22.7517 15.2052 24 12.0001 24ZM5.14685 13.9097C5.08801 13.9097 5.04016 13.958 5.04016 14.0172V14.0882C5.04016 16.3086 6.84058 18.1151 9.05347 18.1151H15.308C16.4801 18.1151 17.1511 17.0381 17.8001 15.9966C17.979 15.7096 18.1639 15.4127 18.3554 15.1463C18.6978 14.6694 19.5237 14.2894 19.7688 14.1842C19.8085 14.1671 19.8351 14.1266 19.8351 14.0836V13.3105C19.8351 13.251 19.7869 13.2026 19.7276 13.2026C19.7175 13.2026 19.7077 13.204 19.6979 13.2068L16.0476 14.262C16.0275 14.2674 16.01 14.2782 15.9972 14.2932C15.7371 14.5801 15.4637 14.8488 15.1849 15.0917L15.1792 15.0968C14.9498 15.2913 14.672 15.3942 14.3756 15.3942H13.0537V14.0463H14.1042C14.1312 14.0463 14.1572 14.0367 14.1774 14.0195L14.3131 13.8945C14.3644 13.848 14.4343 13.7832 14.522 13.6948C14.5707 13.6468 14.6259 13.5924 14.6791 13.5339C14.7281 13.4856 14.7806 13.4281 14.8353 13.3632C14.9193 13.2738 14.9986 13.1806 15.0793 13.0849C15.1398 13.0197 15.196 12.9435 15.2457 12.8761C15.3086 12.8018 15.3702 12.7189 15.417 12.6548C15.4369 12.6259 15.4579 12.5964 15.4794 12.5663L15.484 12.5599C15.504 12.532 15.5243 12.5035 15.5444 12.4742C15.587 12.411 15.6257 12.3486 15.6565 12.2935C15.7524 12.1451 15.8417 11.9759 15.9217 11.7903C15.9549 11.7186 15.9818 11.6427 16.0078 11.5691L16.0194 11.5365C16.0526 11.4381 16.0749 11.3587 16.0917 11.2788C16.1348 11.0786 16.1464 10.8717 16.1261 10.6635C16.1215 10.599 16.1162 10.5362 16.1017 10.4775V10.4676C16.097 10.4246 16.087 10.3778 16.0735 10.3357C16.0311 10.1444 15.9634 9.94417 15.8722 9.74025C15.8455 9.67432 15.8126 9.60201 15.7745 9.52522C15.7037 9.39326 15.6182 9.23829 15.52 9.08998C15.5027 9.06299 15.484 9.03566 15.4652 9.00819C15.4473 8.98213 15.4292 8.95588 15.4125 8.92982C15.3522 8.83662 15.2821 8.74378 15.2201 8.66187L15.1785 8.60658C15.142 8.55879 15.1014 8.51039 15.0623 8.46345L15.0562 8.45619C15.033 8.42848 15.0096 8.40065 14.9871 8.37251C14.9142 8.28407 14.8534 8.21284 14.7958 8.14839C14.5494 7.86922 14.2875 7.61915 14.1118 7.45534C14.0709 7.41439 14.0281 7.3749 13.9845 7.33803C13.8147 7.18294 13.6652 7.05312 13.54 6.95217C13.5042 6.92483 13.4717 6.89767 13.439 6.86989L13.4318 6.86391C13.4114 6.84676 13.392 6.83052 13.373 6.81569L13.3013 6.76112L13.2804 6.74531L13.2267 6.70442C13.2167 6.69661 13.2048 6.69209 13.1947 6.68843L13.0537 6.64876V5.48531C13.0537 5.30361 12.9833 5.13137 12.8555 5.00051C12.7285 4.87118 12.558 4.79995 12.3759 4.79995C12.0017 4.79995 11.6974 5.10745 11.6974 5.48531V6.26912L11.6272 6.24922L11.4367 6.19514L11.2628 6.14711L11.2573 6.14638L9.93471 5.78878C9.92848 5.78695 9.92201 5.78603 9.91579 5.78603C9.89235 5.78603 9.87001 5.79915 9.85756 5.82021C9.84523 5.84145 9.84486 5.86709 9.85695 5.88869L10.0681 6.27828C10.0801 6.30758 10.0949 6.33675 10.109 6.36513C10.1196 6.38643 10.1304 6.40779 10.1405 6.42995C10.1803 6.50954 10.2137 6.57961 10.2427 6.64418C10.2725 6.70821 10.3021 6.77071 10.3364 6.8401L10.3837 6.9452C10.4384 7.06648 10.4949 7.19184 10.5514 7.32807L10.5636 7.35731C10.6075 7.46302 10.6531 7.57234 10.6934 7.68482C10.8168 8.00532 10.927 8.33216 11.0211 8.65613C11.0444 8.72925 11.0627 8.79828 11.0823 8.8714C11.0916 8.90692 11.1004 8.93982 11.1095 8.97333L11.1233 9.03197C11.1685 9.21136 11.1998 9.3604 11.2217 9.50079C11.2422 9.61206 11.26 9.7124 11.2696 9.81427C11.2844 9.92712 11.2993 10.0472 11.3048 10.1649C11.3143 10.2692 11.3192 10.3823 11.3192 10.4919C11.3192 10.7829 11.2922 11.0403 11.2368 11.2787L11.2253 11.3213C11.2091 11.3816 11.1925 11.4434 11.1728 11.5029C11.154 11.5682 11.1305 11.6327 11.1055 11.7012L11.0798 11.772L11.0693 11.8002C11.0531 11.8437 11.0364 11.8883 11.0158 11.9321C10.9069 12.1943 10.7662 12.4753 10.5858 12.7913C10.2993 13.2977 10.0558 13.6531 9.96436 13.7825C9.95374 13.7986 9.94349 13.8138 9.93335 13.8284C9.92249 13.8442 9.91223 13.8592 9.90271 13.8739C9.87915 13.9074 9.87646 13.9509 9.89539 13.9876C9.91456 14.0243 9.9502 14.0463 9.99109 14.0463H11.6974V15.3942H9.97132C9.50843 15.3942 9.07679 15.126 8.87195 14.711C8.76526 14.5014 8.72229 14.2699 8.74768 14.0416C8.75085 14.0069 8.73901 13.9722 8.71545 13.9465C8.69397 13.9228 8.66503 13.9097 8.63415 13.9097L5.14685 13.9097ZM9.18396 7.38838C9.14722 7.38838 9.11353 7.40687 9.09375 7.43782L5.9718 12.3217L5.92004 12.4033C5.89892 12.4363 5.89758 12.4766 5.91638 12.5113C5.93567 12.5463 5.97107 12.5672 6.01147 12.5672H9.2218C9.25793 12.5672 9.29138 12.5495 9.31116 12.5199C9.35205 12.4573 9.39124 12.3907 9.42774 12.3217C9.74219 11.7937 9.96045 11.3169 10.0422 10.9791C10.2937 9.89778 9.59375 8.15193 9.28138 7.45155C9.26417 7.41255 9.22681 7.38838 9.18397 7.38838H9.18396Z" fill="white"/>
</symbol>

<symbol id="twitter"  width="24" height="20" viewBox="0 0 24 20" fill="none" xmlns="http://www.w3.org/2000/svg">
<title>twitter</title>
<path fill-rule="evenodd" clip-rule="evenodd" d="M21.5331 4.9835C21.5483 5.20224 21.5483 5.42103 21.5483 5.63977C21.5483 12.3116 16.5991 19.9991 7.55333 19.9991C4.76651 19.9991 2.17768 19.171 0 17.7335C0.39595 17.7804 0.77663 17.796 1.18782 17.796C3.48728 17.796 5.60407 16.9992 7.29444 15.6398C5.13199 15.5929 3.3198 14.1398 2.69542 12.1398C3.00001 12.1866 3.30456 12.2179 3.62439 12.2179C4.066 12.2179 4.50766 12.1554 4.9188 12.046C2.66499 11.5772 0.97458 9.54601 0.97458 7.09289V7.03041C1.62938 7.40541 2.39087 7.63979 3.19792 7.671C1.87304 6.76473 1.00505 5.21788 1.00505 3.46786C1.00505 2.53038 1.24866 1.671 1.67508 0.920996C4.09642 3.9835 7.73604 5.98347 11.8172 6.20225C11.7411 5.82725 11.6954 5.43666 11.6954 5.04603C11.6954 2.26475 13.8883 -0.000854492 16.6142 -0.000854492C18.0304 -0.000854492 19.3096 0.608516 20.2081 1.5929C21.3198 1.37416 22.3857 0.952255 23.33 0.374146C22.9644 1.54605 22.1878 2.53043 21.1675 3.15538C22.1574 3.04606 23.1168 2.76475 24 2.37416C23.3301 3.37412 22.4924 4.26471 21.533 4.9835H21.5331Z" fill="white"/>
</symbol>

</defs>
</svg>
