<svg width="23" height="16" viewBox="0 0 23 16" fill="none" xmlns="http://www.w3.org/2000/svg">
<path d="M3.47157 7.29938V5.82784L5.23 6.25146C4.96356 6.93237 4.80291 7.67399 4.80291 8.46143C4.80291 11.9073 7.59573 14.7001 11.0416 14.7001C14.4874 14.7001 17.2803 11.9073 17.2803 8.46143C17.2803 7.67517 17.1228 6.93342 16.8548 6.25106L20.5872 5.3519L20.5876 5.3518C21.2093 5.20148 21.582 4.70508 21.582 4.15968C21.582 3.61428 21.2093 3.11787 20.5876 2.96755L20.5875 2.96754L12.0512 0.905203L12.0497 0.904859C11.3907 0.747697 10.697 0.747697 10.0379 0.904857L10.0368 0.905119L1.49156 2.96297L1.49155 2.96297L1.49051 2.96322C0.868202 3.1145 0.5 3.61424 0.5 4.15744C0.5 4.67242 0.830928 5.14832 1.39557 5.32529V7.29938C1.07937 7.57597 0.857567 7.97979 0.857567 8.46144C0.857567 8.89045 1.03478 9.25577 1.29461 9.52504L0.670789 12.0163L0.670336 12.0182C0.603083 12.2911 0.641157 12.5756 0.765231 12.8053C0.887557 13.0317 1.1359 13.2655 1.49655 13.2655H3.37059C3.73123 13.2655 3.97958 13.0317 4.1019 12.8053C4.22598 12.5756 4.26405 12.2911 4.1968 12.0182L4.19634 12.0163L3.57252 9.52504C3.83236 9.25577 4.00957 8.89044 4.00957 8.46144C4.00957 7.9798 3.78776 7.57598 3.47157 7.29938Z" stroke="#90EE90"/>
</svg>
