<svg width="21" height="17" viewBox="0 0 21 17" fill="none" xmlns="http://www.w3.org/2000/svg">
<path fill-rule="evenodd" clip-rule="evenodd" d="M13.796 3.20001C17.1097 3.20001 19.796 5.8863 19.796 9.20001V16.2H15.796V9.20001C15.796 8.09544 14.9006 7.20001 13.796 7.20001C12.6915 7.20001 11.796 8.09544 11.796 9.20001V16.2H7.79602V9.20001C7.79602 5.8863 10.4823 3.20001 13.796 3.20001Z" stroke="#90EE90" stroke-linecap="round" stroke-linejoin="round"/>
<path fill-rule="evenodd" clip-rule="evenodd" d="M0.796021 7.20001H4.79602V16.2H0.796021V7.20001Z" stroke="#90EE90" stroke-linecap="round" stroke-linejoin="round"/>
<path fill-rule="evenodd" clip-rule="evenodd" d="M2.79602 5C3.90059 5 4.79602 4.10457 4.79602 3C4.79602 1.89543 3.90059 1 2.79602 1C1.69145 1 0.796021 1.89543 0.796021 3C0.796021 4.10457 1.69145 5 2.79602 5Z" stroke="#90EE90" stroke-linecap="round" stroke-linejoin="round"/>
</svg>
