<svg width="24" height="18" viewBox="0 0 24 18" fill="none" xmlns="http://www.w3.org/2000/svg">
<path fill-rule="evenodd" clip-rule="evenodd" d="M20.3303 1.50665C18.7767 0.802396 17.1156 0.290586 15.3789 -0.000854492C15.1656 0.372755 14.9164 0.875265 14.7446 1.27501C12.8985 1.00602 11.0693 1.00602 9.25716 1.27501C9.08539 0.875265 8.83056 0.372755 8.61536 -0.000854492C6.87681 0.290576 5.21375 0.804276 3.66019 1.51038C0.526644 6.09818 -0.322806 10.572 0.101914 14.9823C2.18025 16.4861 4.1944 17.3996 6.17457 17.9973C6.66348 17.3454 7.09953 16.6523 7.47517 15.922C6.75975 15.6586 6.07452 15.3335 5.42707 14.9562C5.59884 14.8329 5.76685 14.704 5.92918 14.5714C9.8782 16.3609 14.1689 16.3609 18.0707 14.5714C18.235 14.704 18.403 14.8329 18.5728 14.9562C17.9235 15.3354 17.2364 15.6604 16.521 15.9238C16.8966 16.6523 17.3308 17.3472 17.8216 17.9992C19.8036 17.4014 21.8197 16.488 23.898 14.9823C24.3964 9.86966 23.0467 5.43691 20.3303 1.50665ZM8.01318 12.27C6.82773 12.27 5.85556 11.1978 5.85556 9.89207C5.85556 8.58634 6.80697 7.51225 8.01318 7.51225C9.21943 7.51225 10.1916 8.58446 10.1708 9.89207C10.1727 11.1978 9.21942 12.27 8.01318 12.27ZM15.9867 12.27C14.8013 12.27 13.8291 11.1978 13.8291 9.89207C13.8291 8.58634 14.7805 7.51225 15.9867 7.51225C17.193 7.51225 18.1651 8.58446 18.1444 9.89207C18.1444 11.1978 17.193 12.27 15.9867 12.27Z" fill="white"/>
</svg>
