<svg width="24" height="24" viewBox="0 0 24 24" fill="none" xmlns="http://www.w3.org/2000/svg">
<path fill-rule="evenodd" clip-rule="evenodd" d="M12.0001 24C8.79504 24 5.78174 22.7517 3.51501 20.4851C1.24829 18.2184 0 15.205 0 12C0 8.79463 1.24829 5.78102 3.51501 3.51423C5.78161 1.24751 8.79504 -0.000854492 12.0001 -0.000854492C15.2058 -0.000854492 18.2195 1.2475 20.4858 3.51423C22.7519 5.78083 24 8.79444 24 12C24 15.2051 22.7518 18.2184 20.4853 20.4851C18.2188 22.7517 15.2052 24 12.0001 24ZM5.14685 13.9097C5.08801 13.9097 5.04016 13.958 5.04016 14.0172V14.0882C5.04016 16.3086 6.84058 18.1151 9.05347 18.1151H15.308C16.4801 18.1151 17.1511 17.0381 17.8001 15.9966C17.979 15.7096 18.1639 15.4127 18.3554 15.1463C18.6978 14.6694 19.5237 14.2894 19.7688 14.1842C19.8085 14.1671 19.8351 14.1266 19.8351 14.0836V13.3105C19.8351 13.251 19.7869 13.2026 19.7276 13.2026C19.7175 13.2026 19.7077 13.204 19.6979 13.2068L16.0476 14.262C16.0275 14.2674 16.01 14.2782 15.9972 14.2932C15.7371 14.5801 15.4637 14.8488 15.1849 15.0917L15.1792 15.0968C14.9498 15.2913 14.672 15.3942 14.3756 15.3942H13.0537V14.0463H14.1042C14.1312 14.0463 14.1572 14.0367 14.1774 14.0195L14.3131 13.8945C14.3644 13.848 14.4343 13.7832 14.522 13.6948C14.5707 13.6468 14.6259 13.5924 14.6791 13.5339C14.7281 13.4856 14.7806 13.4281 14.8353 13.3632C14.9193 13.2738 14.9986 13.1806 15.0793 13.0849C15.1398 13.0197 15.196 12.9435 15.2457 12.8761C15.3086 12.8018 15.3702 12.7189 15.417 12.6548C15.4369 12.6259 15.4579 12.5964 15.4794 12.5663L15.484 12.5599C15.504 12.532 15.5243 12.5035 15.5444 12.4742C15.587 12.411 15.6257 12.3486 15.6565 12.2935C15.7524 12.1451 15.8417 11.9759 15.9217 11.7903C15.9549 11.7186 15.9818 11.6427 16.0078 11.5691L16.0194 11.5365C16.0526 11.4381 16.0749 11.3587 16.0917 11.2788C16.1348 11.0786 16.1464 10.8717 16.1261 10.6635C16.1215 10.599 16.1162 10.5362 16.1017 10.4775V10.4676C16.097 10.4246 16.087 10.3778 16.0735 10.3357C16.0311 10.1444 15.9634 9.94417 15.8722 9.74025C15.8455 9.67432 15.8126 9.60201 15.7745 9.52522C15.7037 9.39326 15.6182 9.23829 15.52 9.08998C15.5027 9.06299 15.484 9.03566 15.4652 9.00819C15.4473 8.98213 15.4292 8.95588 15.4125 8.92982C15.3522 8.83662 15.2821 8.74378 15.2201 8.66187L15.1785 8.60658C15.142 8.55879 15.1014 8.51039 15.0623 8.46345L15.0562 8.45619C15.033 8.42848 15.0096 8.40065 14.9871 8.37251C14.9142 8.28407 14.8534 8.21284 14.7958 8.14839C14.5494 7.86922 14.2875 7.61915 14.1118 7.45534C14.0709 7.41439 14.0281 7.3749 13.9845 7.33803C13.8147 7.18294 13.6652 7.05312 13.54 6.95217C13.5042 6.92483 13.4717 6.89767 13.439 6.86989L13.4318 6.86391C13.4114 6.84676 13.392 6.83052 13.373 6.81569L13.3013 6.76112L13.2804 6.74531L13.2267 6.70442C13.2167 6.69661 13.2048 6.69209 13.1947 6.68843L13.0537 6.64876V5.48531C13.0537 5.30361 12.9833 5.13137 12.8555 5.00051C12.7285 4.87118 12.558 4.79995 12.3759 4.79995C12.0017 4.79995 11.6974 5.10745 11.6974 5.48531V6.26912L11.6272 6.24922L11.4367 6.19514L11.2628 6.14711L11.2573 6.14638L9.93471 5.78878C9.92848 5.78695 9.92201 5.78603 9.91579 5.78603C9.89235 5.78603 9.87001 5.79915 9.85756 5.82021C9.84523 5.84145 9.84486 5.86709 9.85695 5.88869L10.0681 6.27828C10.0801 6.30758 10.0949 6.33675 10.109 6.36513C10.1196 6.38643 10.1304 6.40779 10.1405 6.42995C10.1803 6.50954 10.2137 6.57961 10.2427 6.64418C10.2725 6.70821 10.3021 6.77071 10.3364 6.8401L10.3837 6.9452C10.4384 7.06648 10.4949 7.19184 10.5514 7.32807L10.5636 7.35731C10.6075 7.46302 10.6531 7.57234 10.6934 7.68482C10.8168 8.00532 10.927 8.33216 11.0211 8.65613C11.0444 8.72925 11.0627 8.79828 11.0823 8.8714C11.0916 8.90692 11.1004 8.93982 11.1095 8.97333L11.1233 9.03197C11.1685 9.21136 11.1998 9.3604 11.2217 9.50079C11.2422 9.61206 11.26 9.7124 11.2696 9.81427C11.2844 9.92712 11.2993 10.0472 11.3048 10.1649C11.3143 10.2692 11.3192 10.3823 11.3192 10.4919C11.3192 10.7829 11.2922 11.0403 11.2368 11.2787L11.2253 11.3213C11.2091 11.3816 11.1925 11.4434 11.1728 11.5029C11.154 11.5682 11.1305 11.6327 11.1055 11.7012L11.0798 11.772L11.0693 11.8002C11.0531 11.8437 11.0364 11.8883 11.0158 11.9321C10.9069 12.1943 10.7662 12.4753 10.5858 12.7913C10.2993 13.2977 10.0558 13.6531 9.96436 13.7825C9.95374 13.7986 9.94349 13.8138 9.93335 13.8284C9.92249 13.8442 9.91223 13.8592 9.90271 13.8739C9.87915 13.9074 9.87646 13.9509 9.89539 13.9876C9.91456 14.0243 9.9502 14.0463 9.99109 14.0463H11.6974V15.3942H9.97132C9.50843 15.3942 9.07679 15.126 8.87195 14.711C8.76526 14.5014 8.72229 14.2699 8.74768 14.0416C8.75085 14.0069 8.73901 13.9722 8.71545 13.9465C8.69397 13.9228 8.66503 13.9097 8.63415 13.9097L5.14685 13.9097ZM9.18396 7.38838C9.14722 7.38838 9.11353 7.40687 9.09375 7.43782L5.9718 12.3217L5.92004 12.4033C5.89892 12.4363 5.89758 12.4766 5.91638 12.5113C5.93567 12.5463 5.97107 12.5672 6.01147 12.5672H9.2218C9.25793 12.5672 9.29138 12.5495 9.31116 12.5199C9.35205 12.4573 9.39124 12.3907 9.42774 12.3217C9.74219 11.7937 9.96045 11.3169 10.0422 10.9791C10.2937 9.89778 9.59375 8.15193 9.28138 7.45155C9.26417 7.41255 9.22681 7.38838 9.18397 7.38838H9.18396Z" fill="white"/>
</svg>
