<svg width="24" height="24" viewBox="0 0 24 24" fill="none" xmlns="http://www.w3.org/2000/svg">
<path fill-rule="evenodd" clip-rule="evenodd" d="M12.0027 5.84585C8.59743 5.84585 5.85075 8.59315 5.85075 11.9992C5.85075 15.4052 8.59743 18.1525 12.0027 18.1525C15.4079 18.1525 18.1546 15.4052 18.1546 11.9992C18.1546 8.59315 15.4079 5.84585 12.0027 5.84585ZM12.0027 15.9996C9.80211 15.9996 8.00312 14.2056 8.00312 11.9992C8.00312 9.79275 9.79676 7.9987 12.0027 7.9987C14.2086 7.9987 16.0022 9.79274 16.0022 11.9992C16.0022 14.2056 14.2032 15.9996 12.0027 15.9996ZM19.8412 5.59415C19.8412 6.3921 19.1987 7.02939 18.4062 7.02939C17.6085 7.02939 16.9713 6.38675 16.9713 5.59415C16.9713 4.80156 17.6138 4.15892 18.4062 4.15892C19.1987 4.15892 19.8412 4.80156 19.8412 5.59415ZM23.9157 7.05081C23.8246 5.12824 23.3856 3.42524 21.9775 2.02213C20.5747 0.61903 18.872 0.179891 16.9499 0.0834905C14.9689 -0.0289695 9.03112 -0.0289695 7.05008 0.0834905C5.13329 0.174531 3.43067 0.613671 2.02253 2.01677C0.61439 3.41987 0.1807 5.12287 0.08433 7.04545C-0.02811 9.02693 -0.02811 14.966 0.08433 16.9475C0.17535 18.8701 0.61439 20.5731 2.02253 21.9762C3.43067 23.3793 5.12794 23.8184 7.05008 23.9148C9.03112 24.0273 14.9689 24.0273 16.9499 23.9148C18.872 23.8238 20.5747 23.3846 21.9775 21.9762C23.3803 20.5731 23.8193 18.8701 23.9157 16.9475C24.0281 14.966 24.0281 9.03228 23.9157 7.0508L23.9157 7.05081ZM21.3564 19.0736C20.9388 20.1232 20.1303 20.9319 19.0755 21.3549C17.496 21.9815 13.7481 21.8369 12.0027 21.8369C10.2572 21.8369 6.50395 21.9762 4.92983 21.3549C3.88042 20.9372 3.07194 20.1286 2.64896 19.0736C2.02252 17.4937 2.16709 13.745 2.16709 11.9992C2.16709 10.2533 2.02788 6.4992 2.64896 4.92473C3.06658 3.87508 3.87506 3.06642 4.92983 2.64335C6.50931 2.01677 10.2572 2.16137 12.0027 2.16137C13.7481 2.16137 17.5014 2.02213 19.0755 2.64335C20.1249 3.06107 20.9334 3.86973 21.3564 4.92473C21.9828 6.50456 21.8383 10.2533 21.8383 11.9992C21.8383 13.745 21.9828 17.4991 21.3564 19.0736Z" fill="white"/>
</svg>
