<svg width="24" height="20" viewBox="0 0 24 20" fill="none" xmlns="http://www.w3.org/2000/svg">
<path fill-rule="evenodd" clip-rule="evenodd" d="M21.5331 4.9835C21.5483 5.20224 21.5483 5.42103 21.5483 5.63977C21.5483 12.3116 16.5991 19.9991 7.55333 19.9991C4.76651 19.9991 2.17768 19.171 0 17.7335C0.39595 17.7804 0.77663 17.796 1.18782 17.796C3.48728 17.796 5.60407 16.9992 7.29444 15.6398C5.13199 15.5929 3.3198 14.1398 2.69542 12.1398C3.00001 12.1866 3.30456 12.2179 3.62439 12.2179C4.066 12.2179 4.50766 12.1554 4.9188 12.046C2.66499 11.5772 0.97458 9.54601 0.97458 7.09289V7.03041C1.62938 7.40541 2.39087 7.63979 3.19792 7.671C1.87304 6.76473 1.00505 5.21788 1.00505 3.46786C1.00505 2.53038 1.24866 1.671 1.67508 0.920996C4.09642 3.9835 7.73604 5.98347 11.8172 6.20225C11.7411 5.82725 11.6954 5.43666 11.6954 5.04603C11.6954 2.26475 13.8883 -0.000854492 16.6142 -0.000854492C18.0304 -0.000854492 19.3096 0.608516 20.2081 1.5929C21.3198 1.37416 22.3857 0.952255 23.33 0.374146C22.9644 1.54605 22.1878 2.53043 21.1675 3.15538C22.1574 3.04606 23.1168 2.76475 24 2.37416C23.3301 3.37412 22.4924 4.26471 21.533 4.9835H21.5331Z" fill="white"/>
</svg>
